<svg version="1.1" xmlns="http://www.w3.org/2000/svg" viewBox="0 0 462 183" width="462" height="183"><!-- svg-source:excalidraw --><metadata></metadata><defs><style class="style-fonts">
      </style></defs><g transform="translate(72 87) rotate(0 -31 39)" stroke="none"><path fill="#ffffff" d="M -1.83,4.89 Q -1.83,4.89 -4.14,4.05 -6.45,3.21 -10.40,1.75 -14.36,0.28 -17.81,-0.74 -21.26,-1.77 -23.52,-1.87 -25.77,-1.97 -28.50,-0.77 -31.22,0.41 -34.55,3.54 -37.87,6.67 -42.34,12.48 -46.82,18.28 -49.88,24.26 -52.94,30.23 -54.62,33.93 -56.29,37.64 -56.79,40.44 -57.28,43.25 -57.41,45.80 -57.54,48.35 -57.43,52.12 -57.32,55.88 -57.03,58.17 -56.74,60.47 -55.47,62.51 -54.21,64.56 -52.54,67.02 -50.88,69.49 -48.26,72.61 -45.64,75.73 -43.91,77.16 -42.17,78.59 -38.83,79.29 -35.48,79.99 -33.34,80.07 -31.20,80.15 -27.92,80.12 -24.63,80.09 -22.23,79.31 -19.83,78.53 -18.04,77.06 -16.26,75.60 -15.53,73.43 -14.81,71.26 -13.57,68.02 -12.33,64.79 -11.81,63.83 -11.29,62.88 -10.50,62.14 -9.70,61.40 -8.71,60.96 -7.72,60.51 -6.64,60.40 -5.56,60.30 -4.50,60.54 -3.45,60.79 -2.52,61.36 -1.60,61.93 -0.90,62.76 -0.21,63.60 0.17,64.61 0.56,65.62 0.61,66.71 0.66,67.79 0.36,68.83 0.06,69.88 -0.55,70.77 -1.17,71.66 -2.04,72.31 -2.91,72.96 -3.95,73.29 -4.98,73.63 -6.07,73.62 -7.15,73.61 -8.18,73.25 -9.20,72.89 -10.06,72.22 -10.92,71.56 -11.52,70.65 -12.12,69.75 -12.39,68.70 -12.67,67.65 -12.60,66.57 -12.53,65.48 -12.12,64.48 -11.71,63.47 -11.00,62.65 -10.28,61.83 -9.35,61.28 -8.41,60.73 -7.35,60.51 -6.29,60.29 -5.21,60.42 -4.13,60.55 -3.15,61.01 -2.17,61.48 -1.39,62.24 -0.61,62.99 -0.11,63.96 0.38,64.92 0.54,65.99 0.71,67.07 0.52,68.14 0.33,69.21 0.33,69.21 0.33,69.20 -0.27,70.56 -0.87,71.91 -1.75,74.09 -2.63,76.26 -4.62,79.37 -6.61,82.48 -8.72,84.45 -10.82,86.42 -12.98,87.97 -15.13,89.52 -17.53,90.39 -19.94,91.26 -22.33,91.56 -24.73,91.85 -28.21,91.69 -31.69,91.54 -34.22,91.42 -36.75,91.30 -39.46,90.90 -42.18,90.50 -44.29,89.62 -46.40,88.74 -48.95,86.63 -51.50,84.52 -53.62,81.49 -55.75,78.45 -57.10,76.56 -58.46,74.67 -60.41,71.83 -62.36,69.00 -64.20,65.34 -66.04,61.69 -66.28,58.68 -66.52,55.67 -66.06,51.59 -65.61,47.52 -65.17,44.57 -64.73,41.63 -63.88,38.27 -63.03,34.91 -61.55,30.88 -60.07,26.84 -57.06,20.02 -54.04,13.19 -49.64,6.47 -45.23,-0.23 -41.18,-4.93 -37.14,-9.63 -34.42,-11.04 -31.69,-12.45 -26.36,-12.90 -21.03,-13.35 -17.68,-12.34 -14.33,-11.33 -12.13,-10.55 -9.92,-9.76 -6.33,-8.21 -2.74,-6.66 -0.45,-5.78 1.83,-4.89 2.39,-4.60 2.95,-4.31 3.42,-3.89 3.89,-3.47 4.25,-2.96 4.61,-2.44 4.84,-1.85 5.06,-1.26 5.14,-0.64 5.22,-0.01 5.15,0.60 5.07,1.23 4.85,1.82 4.63,2.41 4.28,2.93 3.92,3.45 3.45,3.87 2.98,4.28 2.42,4.58 1.87,4.87 1.25,5.03 0.64,5.18 0.01,5.18 -0.61,5.18 -1.22,5.04 -1.83,4.89 -1.83,4.89 L -1.83,4.89 Z"></path></g><g transform="translate(109 117) rotate(0 -7.5 21.5)" stroke="none"><path fill="#ffffff" d="M 0,5.24 Q 0,5.24 -2.58,5.25 -5.16,5.26 -7.30,5.93 -9.44,6.60 -11.19,8.56 -12.94,10.52 -14.31,12.61 -15.68,14.70 -16.51,17.34 -17.33,19.99 -17.27,22.31 -17.21,24.63 -17.18,27.81 -17.15,31.00 -17.12,33.21 -17.10,35.42 -14.22,35.64 -11.35,35.86 -7.78,35.94 -4.22,36.02 -2.00,35.23 0.20,34.45 0.81,31.70 1.42,28.95 1.83,28.23 2.24,27.51 2.81,26.50 3.39,25.48 4.25,24.70 5.12,23.93 6.19,23.47 7.26,23.01 8.42,22.91 9.58,22.82 10.71,23.10 11.84,23.38 12.82,24.01 13.81,24.64 14.53,25.55 15.26,26.46 15.66,27.55 16.07,28.64 16.10,29.81 16.13,30.97 15.79,32.08 15.44,33.20 14.76,34.14 14.08,35.09 13.14,35.77 12.19,36.45 11.08,36.79 9.96,37.13 8.80,37.10 7.63,37.06 6.54,36.66 5.45,36.26 4.54,35.53 3.63,34.80 3.01,33.82 2.38,32.84 2.10,31.70 1.82,30.57 1.91,29.41 2.01,28.25 2.47,27.18 2.93,26.11 3.71,25.25 4.49,24.38 5.50,23.81 6.52,23.24 7.66,23.02 8.81,22.80 9.96,22.96 11.11,23.11 12.16,23.63 13.20,24.15 14.02,24.98 14.85,25.80 15.36,26.84 15.88,27.89 16.03,29.04 16.19,30.20 15.97,31.34 15.75,32.48 15.75,32.48 15.75,32.48 14.65,34.26 13.56,36.04 12.30,38.92 11.04,41.81 8.88,44.20 6.72,46.58 3.29,47.90 -0.14,49.21 -3.64,49.60 -7.14,49.99 -10.89,50.08 -14.65,50.16 -17.64,49.91 -20.63,49.66 -22.73,48.80 -24.82,47.94 -26.67,46.12 -28.52,44.31 -29.48,42.25 -30.45,40.20 -30.67,37.81 -30.89,35.42 -30.86,33.20 -30.84,30.99 -30.79,27.73 -30.74,24.47 -30.65,22.35 -30.56,20.22 -30.08,17.74 -29.60,15.27 -28.64,13.07 -27.68,10.87 -26.46,8.50 -25.23,6.12 -23.39,4.04 -21.55,1.96 -19.92,0.51 -18.30,-0.92 -16.45,-2.21 -14.61,-3.50 -12.25,-4.12 -9.90,-4.75 -7.54,-5.01 -5.18,-5.26 -2.59,-5.25 0,-5.24 0.62,-5.17 1.25,-5.09 1.84,-4.86 2.43,-4.64 2.95,-4.28 3.47,-3.92 3.89,-3.45 4.31,-2.98 4.61,-2.42 4.90,-1.86 5.05,-1.24 5.20,-0.63 5.20,0.00 5.20,0.63 5.05,1.24 4.90,1.86 4.61,2.42 4.31,2.98 3.89,3.45 3.47,3.92 2.95,4.28 2.43,4.64 1.84,4.86 1.25,5.09 0.62,5.17 -0.00,5.24 -0.00,5.24 L 0,5.24 Z"></path></g><g transform="translate(112 121) rotate(0 14.5 16)" stroke="none"><path fill="#ffffff" d="M 5.33,0 Q 5.33,0 5.37,2.3 5.40,4.6 5.53,7.50 5.66,10.41 6.01,12.57 6.35,14.72 8.29,17.39 10.24,20.05 12.26,21.64 14.29,23.23 17.74,24.17 21.20,25.12 25.10,25.05 29.01,24.98 30.13,25.16 31.25,25.35 32.25,25.88 33.25,26.41 34.03,27.24 34.81,28.07 35.28,29.10 35.76,30.13 35.88,31.26 36.00,32.39 35.76,33.49 35.51,34.60 34.92,35.57 34.34,36.55 33.47,37.28 32.60,38.01 31.55,38.43 30.49,38.85 29.36,38.91 28.23,38.97 27.13,38.66 26.04,38.36 25.10,37.72 24.16,37.08 23.48,36.18 22.79,35.27 22.43,34.20 22.07,33.12 22.07,31.98 22.07,30.85 22.44,29.77 22.80,28.70 23.49,27.80 24.18,26.89 25.12,26.26 26.06,25.62 27.15,25.32 28.25,25.02 29.38,25.08 30.52,25.14 31.57,25.57 32.62,25.99 33.49,26.72 34.35,27.46 34.93,28.43 35.52,29.41 35.76,30.52 36.00,31.63 35.88,32.76 35.75,33.88 35.27,34.91 34.80,35.94 34.01,36.77 33.23,37.59 32.23,38.12 31.22,38.65 30.10,38.83 28.98,39.01 28.98,39.01 28.98,39.01 27.00,38.99 25.02,38.97 22.36,38.81 19.70,38.64 17.54,38.14 15.39,37.65 12.62,36.77 9.85,35.90 7.46,34.15 5.08,32.40 2.46,29.70 -0.14,27.00 -1.58,24.97 -3.01,22.94 -4.11,20.00 -5.20,17.06 -5.43,13.74 -5.66,10.41 -5.53,7.50 -5.40,4.6 -5.37,2.3 -5.33,0 -5.26,-0.63 -5.18,-1.27 -4.95,-1.87 -4.72,-2.48 -4.36,-3.01 -3.99,-3.54 -3.51,-3.96 -3.03,-4.39 -2.46,-4.69 -1.89,-4.99 -1.26,-5.14 -0.64,-5.29 0.00,-5.29 0.64,-5.29 1.26,-5.14 1.89,-4.99 2.46,-4.69 3.03,-4.39 3.51,-3.96 3.99,-3.53 4.36,-3.01 4.72,-2.48 4.95,-1.87 5.18,-1.27 5.26,-0.63 5.33,0.00 5.33,0.00 L 5.33,0 Z"></path></g><g transform="translate(164 64) rotate(0 9.5 43)" stroke="none"><path fill="#ffffff" d="M 4.12,1.08 Q 4.12,1.08 2.47,6.49 0.83,11.89 -0.48,18.35 -1.79,24.80 -2.39,29.50 -3.00,34.19 -3.29,38.73 -3.59,43.28 -3.62,46.94 -3.65,50.61 -3.48,53.03 -3.32,55.45 -3.01,58.31 -2.71,61.16 -2.42,63.82 -2.13,66.48 -0.01,68.70 2.11,70.92 4.75,72.88 7.40,74.83 9.56,76.61 11.72,78.39 14.63,79.22 17.54,80.06 17.75,76.51 17.96,72.96 18.57,70.61 19.17,68.26 19.19,67.03 19.21,65.81 19.42,64.73 19.63,63.65 20.17,62.70 20.71,61.74 21.53,61.01 22.35,60.28 23.35,59.84 24.36,59.41 25.46,59.32 26.55,59.23 27.62,59.50 28.68,59.77 29.60,60.36 30.53,60.95 31.22,61.81 31.90,62.66 32.28,63.69 32.66,64.72 32.69,65.82 32.72,66.92 32.39,67.97 32.07,69.01 31.43,69.90 30.79,70.80 29.90,71.44 29.00,72.07 27.95,72.40 26.90,72.72 25.81,72.69 24.71,72.66 23.68,72.28 22.65,71.90 21.80,71.21 20.94,70.52 20.35,69.59 19.76,68.67 19.50,67.60 19.23,66.54 19.32,65.45 19.41,64.35 19.85,63.34 20.28,62.34 21.02,61.52 21.75,60.70 22.71,60.16 23.66,59.63 24.74,59.42 25.82,59.21 26.91,59.36 27.99,59.51 28.98,60.00 29.96,60.49 30.73,61.27 31.51,62.04 31.99,63.03 32.48,64.01 32.63,65.10 32.78,66.19 32.78,66.18 32.78,66.18 32.68,68.01 32.58,69.83 31.97,72.52 31.36,75.22 30.29,77.46 29.22,79.70 27.46,82.92 25.70,86.13 24.25,88.25 22.81,90.37 20.76,91.26 18.72,92.14 15.42,91.61 12.11,91.08 9.90,90.21 7.69,89.34 5.06,87.68 2.43,86.02 0.06,84.04 -2.31,82.05 -4.57,79.59 -6.84,77.13 -8.66,74.23 -10.47,71.32 -11.17,69.09 -11.86,66.86 -11.56,63.98 -11.26,61.11 -10.91,58.22 -10.56,55.34 -10.31,52.89 -10.07,50.45 -9.92,46.72 -9.77,42.99 -9.64,38.25 -9.50,33.51 -9.10,28.54 -8.69,23.57 -7.63,16.76 -6.58,9.95 -5.35,4.43 -4.12,-1.08 -3.93,-1.56 -3.74,-2.04 -3.44,-2.45 -3.14,-2.87 -2.75,-3.21 -2.36,-3.54 -1.90,-3.77 -1.44,-4.01 -0.94,-4.12 -0.44,-4.24 0.06,-4.23 0.58,-4.22 1.07,-4.09 1.57,-3.96 2.02,-3.71 2.47,-3.47 2.85,-3.12 3.23,-2.77 3.52,-2.35 3.80,-1.92 3.98,-1.43 4.15,-0.95 4.21,-0.44 4.26,0.06 4.19,0.57 4.12,1.08 4.12,1.08 L 4.12,1.08 Z"></path></g><g transform="translate(169 103) rotate(0 -14.5 0)" stroke="none"><path fill="#ffffff" d="M 0,5.32 Q 0,5.32 -2.01,5.38 -4.02,5.43 -6.92,5.57 -9.82,5.71 -12.97,5.87 -16.12,6.04 -18.89,6.16 -21.67,6.29 -25.33,6.39 -29,6.49 -30.03,6.32 -31.07,6.15 -32.00,5.66 -32.93,5.17 -33.65,4.40 -34.37,3.64 -34.81,2.69 -35.26,1.73 -35.37,0.69 -35.48,-0.35 -35.26,-1.37 -35.03,-2.40 -34.49,-3.30 -33.95,-4.20 -33.15,-4.88 -32.34,-5.56 -31.37,-5.95 -30.39,-6.34 -29.34,-6.40 -28.29,-6.45 -27.28,-6.17 -26.27,-5.89 -25.40,-5.30 -24.53,-4.71 -23.89,-3.88 -23.25,-3.04 -22.92,-2.04 -22.58,-1.05 -22.58,0.00 -22.58,1.05 -22.92,2.04 -23.25,3.04 -23.89,3.88 -24.53,4.71 -25.40,5.30 -26.27,5.89 -27.28,6.17 -28.29,6.46 -29.34,6.40 -30.39,6.34 -31.37,5.95 -32.35,5.56 -33.15,4.88 -33.95,4.20 -34.49,3.30 -35.03,2.40 -35.26,1.37 -35.48,0.35 -35.37,-0.69 -35.26,-1.74 -34.81,-2.69 -34.37,-3.64 -33.65,-4.41 -32.93,-5.17 -32.00,-5.66 -31.07,-6.15 -30.03,-6.32 -28.99,-6.49 -28.99,-6.49 -29,-6.49 -25.33,-6.39 -21.67,-6.29 -18.89,-6.16 -16.12,-6.04 -12.97,-5.87 -9.82,-5.71 -6.92,-5.57 -4.02,-5.43 -2.01,-5.38 0,-5.32 0.63,-5.24 1.27,-5.16 1.87,-4.94 2.47,-4.71 3.00,-4.34 3.53,-3.98 3.95,-3.50 4.38,-3.02 4.67,-2.45 4.97,-1.88 5.13,-1.26 5.28,-0.64 5.28,0.00 5.28,0.64 5.13,1.26 4.97,1.88 4.67,2.45 4.38,3.02 3.95,3.50 3.53,3.98 3.00,4.34 2.47,4.71 1.87,4.94 1.27,5.16 0.63,5.24 -0.00,5.32 -0.00,5.32 L 0,5.32 Z"></path></g><g transform="translate(252 148) rotate(0 0 -68.5)" stroke="none"><path fill="#ffffff" d="M -4.04,0 Q -4.04,0 -3.85,-8.91 -3.66,-17.82 -3.52,-29.37 -3.38,-40.92 -3.28,-48.70 -3.17,-56.49 -3.10,-64.11 -3.02,-71.73 -2.97,-77.84 -2.91,-83.96 -3.04,-87.42 -3.16,-90.88 -3.35,-93.50 -3.55,-96.12 -3.71,-98.67 -3.88,-101.22 -4.18,-105.03 -4.48,-108.83 -4.55,-111.46 -4.62,-114.10 -4.74,-118.94 -4.86,-123.77 -4.90,-126.43 -4.93,-129.08 -5.09,-133.54 -5.25,-138 -5.12,-138.83 -4.98,-139.67 -4.58,-140.43 -4.18,-141.18 -3.56,-141.76 -2.95,-142.35 -2.17,-142.70 -1.40,-143.06 -0.56,-143.15 0.28,-143.25 1.11,-143.06 1.94,-142.88 2.67,-142.44 3.40,-142.00 3.95,-141.35 4.50,-140.71 4.82,-139.92 5.13,-139.12 5.18,-138.28 5.22,-137.43 5.00,-136.61 4.77,-135.79 4.29,-135.08 3.81,-134.38 3.13,-133.86 2.46,-133.35 1.65,-133.08 0.85,-132.81 -0.00,-132.81 -0.85,-132.81 -1.65,-133.08 -2.46,-133.35 -3.14,-133.86 -3.81,-134.38 -4.29,-135.08 -4.77,-135.79 -5.00,-136.61 -5.22,-137.43 -5.18,-138.28 -5.13,-139.13 -4.82,-139.92 -4.50,-140.71 -3.95,-141.36 -3.40,-142.00 -2.67,-142.44 -1.94,-142.88 -1.11,-143.06 -0.28,-143.25 0.56,-143.15 1.40,-143.06 2.18,-142.70 2.95,-142.35 3.56,-141.76 4.18,-141.18 4.58,-140.42 4.98,-139.67 5.12,-138.83 5.25,-137.99 5.25,-137.99 5.25,-138 5.09,-133.54 4.93,-129.08 4.90,-126.43 4.86,-123.77 4.74,-118.94 4.62,-114.10 4.55,-111.46 4.48,-108.83 4.18,-105.03 3.88,-101.22 3.71,-98.67 3.55,-96.12 3.35,-93.50 3.16,-90.88 3.04,-87.42 2.91,-83.96 2.97,-77.84 3.02,-71.73 3.10,-64.11 3.17,-56.49 3.28,-48.70 3.38,-40.92 3.52,-29.37 3.66,-17.82 3.85,-8.91 4.04,0 3.98,0.48 3.92,0.96 3.75,1.42 3.58,1.87 3.30,2.28 3.02,2.68 2.66,3.00 2.29,3.32 1.86,3.55 1.43,3.78 0.96,3.89 0.48,4.01 -0.00,4.01 -0.48,4.01 -0.96,3.89 -1.43,3.78 -1.86,3.55 -2.29,3.32 -2.66,3.00 -3.02,2.68 -3.30,2.28 -3.58,1.87 -3.75,1.42 -3.92,0.96 -3.98,0.48 -4.04,-0.00 -4.04,-0.00 L -4.04,0 Z"></path></g><g transform="translate(234 22) rotate(0 31.5 16.5)" stroke="none"><path fill="#ffffff" d="M -1.03,-4.15 Q -1.03,-4.15 3.61,-5.09 8.26,-6.03 11.69,-6.82 15.12,-7.62 20.03,-7.83 24.94,-8.04 30.72,-8.06 36.50,-8.08 40.66,-8.07 44.82,-8.07 47.17,-8.31 49.52,-8.54 53.64,-6.78 57.77,-5.03 59.51,-3.23 61.25,-1.42 62.51,0.43 63.77,2.29 65.26,4.65 66.75,7.02 67.50,9.58 68.26,12.15 68.48,14.31 68.70,16.48 68.78,18.86 68.87,21.25 67.93,23.58 66.98,25.91 65.34,27.57 63.70,29.22 61.13,31.01 58.55,32.81 56.18,34.24 53.80,35.68 49.70,37.05 45.59,38.42 42.92,39.35 40.25,40.28 36.33,41.37 32.42,42.47 29.99,42.76 27.57,43.05 24.29,43.45 21.01,43.84 18.71,44.00 16.41,44.15 12.93,44.27 9.45,44.38 7.24,44.42 5.04,44.47 4.00,44.31 2.97,44.14 2.04,43.66 1.11,43.18 0.38,42.42 -0.33,41.66 -0.78,40.72 -1.22,39.77 -1.34,38.73 -1.46,37.69 -1.24,36.66 -1.03,35.64 -0.49,34.74 0.03,33.83 0.83,33.15 1.62,32.47 2.59,32.07 3.56,31.68 4.61,31.62 5.65,31.55 6.67,31.83 7.68,32.10 8.55,32.68 9.42,33.27 10.06,34.10 10.70,34.93 11.04,35.92 11.38,36.91 11.38,37.95 11.39,39.00 11.06,40.00 10.73,40.99 10.11,41.83 9.48,42.67 8.61,43.26 7.75,43.85 6.74,44.14 5.74,44.43 4.69,44.38 3.64,44.33 2.67,43.95 1.69,43.56 0.89,42.89 0.09,42.22 -0.45,41.32 -1.00,40.43 -1.23,39.41 -1.46,38.39 -1.35,37.34 -1.24,36.30 -0.81,35.35 -0.38,34.39 0.33,33.63 1.04,32.86 1.97,32.37 2.89,31.87 3.92,31.70 4.95,31.52 4.95,31.52 4.95,31.52 8.63,31.52 12.32,31.52 15.65,31.35 18.99,31.19 21.32,30.80 23.65,30.42 26.38,30.23 29.12,30.04 32.36,29.13 35.60,28.22 38.97,27.12 42.35,26.01 44.98,25.22 47.60,24.43 50.27,22.94 52.94,21.45 55.03,20.88 57.12,20.31 57.23,17.64 57.33,14.96 56.98,12.24 56.62,9.52 55.52,6.97 54.42,4.43 51.99,1.52 49.56,-1.37 47.24,-1.56 44.91,-1.74 40.79,-1.62 36.66,-1.50 31.05,-1.24 25.44,-0.98 21.14,-0.52 16.84,-0.07 13.48,0.67 10.13,1.43 5.58,2.79 1.03,4.15 0.52,4.22 0.01,4.28 -0.49,4.22 -1.01,4.16 -1.49,3.98 -1.97,3.80 -2.40,3.50 -2.83,3.21 -3.17,2.83 -3.51,2.44 -3.76,1.98 -4.00,1.53 -4.12,1.03 -4.25,0.53 -4.25,0.01 -4.25,-0.50 -4.13,-1.00 -4.01,-1.50 -3.77,-1.96 -3.53,-2.42 -3.19,-2.81 -2.85,-3.19 -2.42,-3.49 -2.00,-3.78 -1.52,-3.97 -1.03,-4.15 -1.03,-4.15 L -1.03,-4.15 Z"></path></g><g transform="translate(321 94) rotate(0 -3 25)" stroke="none"><path fill="#ffffff" d="M 5.04,0 Q 5.04,0 5.07,2.58 5.09,5.17 5.12,7.71 5.15,10.24 5.14,13.05 5.13,15.85 4.90,20.79 4.67,25.74 4.22,28.65 3.77,31.57 2.94,34.54 2.11,37.51 1.49,40.65 0.87,43.78 0.32,46.05 -0.23,48.32 -0.19,49.31 -0.16,50.31 -0.36,51.23 -0.56,52.16 -1.05,52.97 -1.54,53.78 -2.26,54.39 -2.98,55.00 -3.86,55.35 -4.74,55.70 -5.68,55.75 -6.62,55.81 -7.54,55.55 -8.45,55.30 -9.23,54.77 -10.01,54.24 -10.58,53.49 -11.16,52.73 -11.46,51.84 -11.76,50.94 -11.76,50.00 -11.76,49.05 -11.46,48.16 -11.16,47.26 -10.59,46.51 -10.02,45.75 -9.23,45.22 -8.45,44.69 -7.54,44.44 -6.63,44.19 -5.69,44.24 -4.74,44.29 -3.86,44.64 -2.98,44.99 -2.26,45.60 -1.54,46.21 -1.05,47.02 -0.57,47.83 -0.36,48.75 -0.16,49.68 -0.26,50.62 -0.36,51.56 -0.76,52.41 -1.16,53.27 -1.81,53.96 -2.46,54.65 -3.29,55.09 -4.13,55.53 -5.06,55.69 -5.99,55.84 -6.93,55.69 -7.86,55.53 -8.70,55.09 -9.53,54.65 -10.18,53.96 -10.83,53.28 -11.23,52.42 -11.63,51.56 -11.73,50.62 -11.83,49.68 -11.83,49.68 -11.83,49.68 -10.73,45.03 -9.62,40.38 -8.76,37.53 -7.90,34.67 -7.23,32.37 -6.56,30.06 -6.19,27.32 -5.82,24.57 -5.47,20.21 -5.13,15.85 -5.14,13.05 -5.15,10.24 -5.12,7.71 -5.09,5.17 -5.07,2.58 -5.04,0 -4.97,-0.60 -4.89,-1.20 -4.68,-1.77 -4.46,-2.34 -4.12,-2.84 -3.77,-3.34 -3.32,-3.74 -2.86,-4.15 -2.32,-4.43 -1.78,-4.71 -1.19,-4.86 -0.60,-5.00 0.00,-5.00 0.60,-5.00 1.19,-4.86 1.78,-4.71 2.32,-4.43 2.86,-4.15 3.32,-3.74 3.77,-3.34 4.12,-2.84 4.46,-2.34 4.68,-1.77 4.89,-1.20 4.97,-0.60 5.04,0.00 5.04,0.00 L 5.04,0 Z"></path></g><g transform="translate(383 95) rotate(0 -17 29)" stroke="none"><path fill="#ffffff" d="M 0,5.29 Q 0,5.29 -2.58,5.30 -5.17,5.30 -8.83,5.43 -12.49,5.56 -16.59,5.62 -20.69,5.69 -24.02,5.78 -27.34,5.88 -28.36,8.43 -29.39,10.99 -29.38,13.20 -29.38,15.41 -29.35,17.87 -29.32,20.32 -29.29,22.81 -29.26,25.30 -29.24,27.80 -29.21,30.30 -29.17,33.22 -29.12,36.15 -27.64,38.84 -26.15,41.54 -24.59,44.20 -23.04,46.87 -20.82,48.83 -18.60,50.80 -15.95,50.84 -13.29,50.89 -10.83,50.87 -8.37,50.86 -4.66,47.62 -0.95,44.37 0.17,44.08 1.31,43.78 2.48,43.86 3.65,43.94 4.73,44.39 5.82,44.83 6.70,45.61 7.58,46.38 8.17,47.39 8.77,48.40 9.00,49.55 9.24,50.70 9.10,51.86 8.95,53.03 8.45,54.09 7.94,55.14 7.12,55.99 6.30,56.83 5.26,57.36 4.22,57.90 3.06,58.07 1.90,58.24 0.74,58.04 -0.40,57.83 -1.43,57.27 -2.46,56.71 -3.26,55.84 -4.05,54.98 -4.53,53.91 -5.01,52.84 -5.12,51.67 -5.23,50.50 -4.96,49.36 -4.69,48.22 -4.07,47.22 -3.46,46.23 -2.55,45.48 -1.65,44.73 -0.55,44.31 0.53,43.89 1.71,43.85 2.88,43.80 4.00,44.13 5.13,44.46 6.09,45.13 7.05,45.80 7.75,46.74 8.45,47.69 8.81,48.80 9.16,49.92 9.15,51.09 9.13,52.27 8.74,53.37 8.35,54.48 7.63,55.40 6.91,56.33 5.93,56.97 4.95,57.62 4.95,57.62 4.95,57.62 5.23,57.11 5.50,56.60 3.59,58.56 1.67,60.53 -1.31,62.40 -4.31,64.27 -7.89,64.68 -11.48,65.09 -14.60,65.00 -17.73,64.90 -20.44,64.33 -23.16,63.75 -25.28,62.62 -27.40,61.49 -29.36,59.87 -31.31,58.25 -33.13,55.91 -34.95,53.56 -36.58,50.83 -38.21,48.11 -39.70,44.94 -41.19,41.78 -42.03,39.19 -42.87,36.60 -42.82,33.45 -42.78,30.30 -42.75,27.80 -42.73,25.29 -42.70,22.79 -42.66,20.29 -42.62,17.76 -42.57,15.24 -42.46,12.59 -42.35,9.95 -41.81,6.95 -41.27,3.96 -40.10,1.53 -38.93,-0.88 -36.32,-3.03 -33.70,-5.17 -30.52,-5.52 -27.34,-5.88 -24.02,-5.78 -20.69,-5.69 -16.59,-5.62 -12.49,-5.56 -8.83,-5.43 -5.17,-5.30 -2.58,-5.30 0,-5.29 0.63,-5.22 1.26,-5.14 1.86,-4.91 2.46,-4.69 2.98,-4.32 3.51,-3.96 3.93,-3.48 4.35,-3.00 4.65,-2.44 4.95,-1.87 5.10,-1.25 5.25,-0.63 5.25,0.00 5.25,0.63 5.10,1.25 4.95,1.87 4.65,2.44 4.35,3.00 3.93,3.48 3.51,3.96 2.98,4.32 2.46,4.69 1.86,4.91 1.26,5.14 0.63,5.22 -0.00,5.29 -0.00,5.29 L 0,5.29 Z"></path></g><g transform="translate(445 77) rotate(0 -14 35)" stroke="none"><path fill="#ffffff" d="M -0.64,5.18 Q -0.64,5.18 -2.95,4.93 -5.25,4.69 -8.63,4.65 -12.00,4.62 -13.47,6.34 -14.93,8.05 -15.18,10.64 -15.42,13.23 -15.40,16.60 -15.38,19.97 -15.34,22.19 -15.30,24.42 -14.81,26.62 -14.32,28.82 -11.71,29.28 -9.10,29.73 -6.72,29.85 -4.34,29.97 -1.62,29.98 1.09,29.98 4.11,30.41 7.12,30.83 9.19,32.07 11.25,33.31 12.54,36.44 13.84,39.57 14.01,42.90 14.18,46.23 14.18,48.76 14.17,51.28 14.19,54.10 14.20,56.92 13.92,60.18 13.64,63.45 12.33,65.83 11.03,68.22 9.36,69.98 7.69,71.74 4.67,73.32 1.64,74.89 -1.65,75.82 -4.95,76.74 -8.37,77.28 -11.78,77.82 -15.30,77.89 -18.81,77.95 -21.80,77.96 -24.79,77.96 -28.73,76.98 -32.67,76.01 -35.56,73.33 -38.44,70.65 -40.06,67.44 -41.68,64.23 -41.87,63.11 -42.05,61.98 -41.86,60.85 -41.67,59.73 -41.14,58.72 -40.60,57.71 -39.77,56.93 -38.94,56.15 -37.90,55.67 -36.87,55.19 -35.73,55.07 -34.60,54.95 -33.48,55.20 -32.37,55.45 -31.39,56.04 -30.42,56.63 -29.68,57.50 -28.94,58.37 -28.52,59.43 -28.10,60.50 -28.04,61.63 -27.99,62.77 -28.29,63.87 -28.60,64.97 -29.24,65.91 -29.89,66.86 -30.80,67.55 -31.71,68.23 -32.79,68.60 -33.87,68.96 -35.01,68.96 -36.15,68.95 -37.23,68.59 -38.31,68.22 -39.22,67.53 -40.13,66.83 -40.77,65.89 -41.40,64.94 -41.71,63.84 -42.01,62.74 -41.94,61.60 -41.88,60.46 -41.45,59.40 -41.03,58.34 -40.29,57.48 -39.55,56.61 -38.57,56.02 -37.59,55.44 -36.47,55.19 -35.36,54.95 -34.23,55.08 -33.09,55.20 -32.06,55.69 -31.02,56.17 -30.20,56.95 -29.37,57.74 -28.84,58.75 -28.31,59.76 -28.31,59.76 -28.31,59.76 -27.58,61.93 -26.85,64.10 -24.38,64.05 -21.92,63.99 -19.19,63.94 -16.46,63.89 -13.68,63.71 -10.89,63.53 -8.64,63.00 -6.39,62.48 -4.40,61.72 -2.41,60.96 -1.31,58.94 -0.20,56.93 -0.19,54.12 -0.18,51.31 -0.19,48.84 -0.21,46.37 -0.08,44.10 0.04,41.83 2.03,42.94 4.03,44.05 1.84,44.00 -0.33,43.95 -2.57,43.90 -4.81,43.84 -8.71,43.57 -12.60,43.29 -14.80,42.86 -16.99,42.42 -19.05,41.56 -21.11,40.69 -23.08,39.05 -25.04,37.42 -26.49,34.92 -27.95,32.42 -28.32,28.41 -28.68,24.41 -28.64,22.16 -28.59,19.91 -28.53,17.16 -28.46,14.42 -28.27,11.76 -28.07,9.10 -26.89,5.63 -25.72,2.16 -24.23,-0.85 -22.75,-3.86 -20.72,-5.07 -18.69,-6.28 -16.09,-6.46 -13.50,-6.64 -11.02,-6.43 -8.54,-6.21 -6.24,-6.02 -3.94,-5.84 -1.64,-5.51 0.64,-5.18 1.25,-5.03 1.87,-4.87 2.42,-4.58 2.98,-4.29 3.45,-3.87 3.92,-3.45 4.27,-2.93 4.63,-2.41 4.85,-1.82 5.07,-1.23 5.15,-0.60 5.22,0.01 5.14,0.64 5.06,1.26 4.84,1.85 4.61,2.44 4.25,2.96 3.89,3.47 3.42,3.89 2.95,4.31 2.39,4.60 1.83,4.89 1.22,5.04 0.61,5.19 -0.01,5.18 -0.64,5.18 -0.64,5.18 L -0.64,5.18 Z"></path></g><g transform="translate(323 68) rotate(0 6.5 -13.5)" stroke="none"><path fill="#ffffff" d="M -2.45,0 Q -2.45,0 -2.40,-1.72 -2.35,-3.44 -2.37,-4.72 -2.39,-5.99 -2.88,-7.00 -3.36,-8.00 -3.87,-9.87 -4.37,-11.75 -4.88,-12.97 -5.38,-14.20 -6.26,-16.13 -7.13,-18.05 -7.29,-19.18 -7.44,-20.31 -7.59,-21.68 -7.73,-23.05 -7.58,-24.59 -7.43,-26.13 -6.73,-27.11 -6.02,-28.09 -4.72,-28.45 -3.42,-28.82 -1.73,-28.93 -0.05,-29.04 1.17,-29.06 2.40,-29.09 3.69,-28.54 4.99,-27.99 6.36,-26.44 7.74,-24.89 8.34,-23.79 8.94,-22.70 9.13,-21.31 9.32,-19.91 9.36,-18.84 9.40,-17.77 6.82,-17.67 4.24,-17.58 4.71,-18.82 5.19,-20.07 5.80,-21.19 6.41,-22.32 6.86,-23.34 7.31,-24.36 8.24,-26.04 9.17,-27.73 10.08,-28.69 11.00,-29.65 12.53,-29.97 14.06,-30.28 15.14,-30.32 16.22,-30.37 17.30,-30.10 18.37,-29.83 19.43,-29.08 20.48,-28.34 20.85,-27.34 21.22,-26.33 21.33,-25.08 21.44,-23.83 21.47,-22.28 21.50,-20.74 21.51,-19.24 21.53,-17.73 21.54,-16.23 21.55,-14.73 21.53,-13.62 21.50,-12.50 21.01,-11.22 20.51,-9.95 19.39,-8.63 18.27,-7.30 17.16,-6.54 16.05,-5.79 14.55,-4.91 13.06,-4.04 11.51,-3.01 9.96,-1.97 8.86,-1.41 7.75,-0.84 6.75,-0.32 5.74,0.19 4.05,1.14 2.36,2.10 1.96,2.42 1.56,2.75 1.08,2.92 0.60,3.10 0.09,3.12 -0.41,3.13 -0.90,2.99 -1.39,2.84 -1.81,2.54 -2.23,2.24 -2.53,1.83 -2.83,1.41 -2.98,0.92 -3.13,0.43 -3.12,-0.07 -3.11,-0.58 -2.93,-1.06 -2.76,-1.54 -2.44,-1.94 -2.12,-2.34 -1.69,-2.62 -1.26,-2.90 -0.76,-3.03 -0.26,-3.15 0.24,-3.11 0.75,-3.07 1.22,-2.87 1.69,-2.67 2.07,-2.33 2.46,-1.99 2.71,-1.54 2.96,-1.10 3.06,-0.59 3.16,-0.09 3.09,0.41 3.03,0.91 2.80,1.37 2.57,1.83 2.21,2.20 1.85,2.56 1.39,2.79 0.93,3.02 0.43,3.09 -0.07,3.16 -0.57,3.07 -1.08,2.97 -1.52,2.72 -1.97,2.47 -2.31,2.09 -2.66,1.71 -2.86,1.24 -3.07,0.77 -3.11,0.26 -3.15,-0.24 -3.03,-0.74 -2.91,-1.24 -2.63,-1.67 -2.36,-2.10 -2.36,-2.10 -2.36,-2.10 0.12,-3.88 2.62,-5.66 3.64,-6.17 4.66,-6.67 6.03,-7.57 7.41,-8.46 8.43,-9.30 9.46,-10.14 10.84,-10.91 12.22,-11.68 13.33,-12.71 14.43,-13.73 14.44,-15.23 14.45,-16.73 14.47,-18.23 14.48,-19.73 14.49,-21.20 14.50,-22.68 14.50,-23.77 14.50,-24.87 15.40,-24.24 16.30,-23.60 15.36,-24.19 14.41,-24.77 13.81,-23.38 13.22,-22.00 12.33,-19.96 11.44,-17.92 10.17,-15.48 8.90,-13.04 6.01,-13.82 3.12,-14.61 2.84,-15.66 2.56,-16.72 2.58,-18.13 2.59,-19.54 2.63,-20.62 2.68,-21.70 1.39,-22.30 0.10,-22.90 -1.05,-23.06 -2.21,-23.21 -2.24,-22.00 -2.28,-20.80 -2.22,-19.37 -2.16,-17.94 -1.62,-16.91 -1.09,-15.88 -0.57,-14.47 -0.04,-13.06 0.50,-11.43 1.06,-9.80 1.73,-7.96 2.39,-6.13 2.37,-4.79 2.35,-3.44 2.40,-1.72 2.45,0 2.41,0.29 2.38,0.58 2.27,0.86 2.17,1.14 2.00,1.38 1.83,1.62 1.61,1.82 1.39,2.01 1.13,2.15 0.86,2.29 0.58,2.36 0.29,2.43 -0.00,2.43 -0.29,2.43 -0.58,2.36 -0.87,2.29 -1.13,2.15 -1.39,2.01 -1.61,1.82 -1.83,1.62 -2.00,1.38 -2.17,1.14 -2.27,0.86 -2.38,0.58 -2.41,0.29 -2.45,-0.00 -2.45,-0.00 L -2.45,0 Z"></path></g><g transform="translate(330 60) rotate(0 0 -8.5)" stroke="none"><path fill="#6741d9" d="M -1.84,-1.84 Q -1.84,-1.84 -0.99,-2.71 -0.14,-3.58 0.79,-5.40 1.74,-7.22 2.33,-8.23 2.92,-9.24 3.54,-10.67 4.16,-12.10 4.53,-13.28 4.91,-14.46 4.88,-15.40 4.86,-16.34 4.91,-16.71 4.97,-17.09 5.11,-17.44 5.25,-17.79 5.47,-18.09 5.70,-18.40 5.98,-18.64 6.27,-18.88 6.61,-19.05 6.95,-19.22 7.32,-19.30 7.69,-19.38 8.07,-19.37 8.44,-19.36 8.81,-19.26 9.17,-19.16 9.50,-18.98 9.83,-18.79 10.11,-18.54 10.38,-18.28 10.59,-17.96 10.80,-17.65 10.92,-17.29 11.05,-16.93 11.08,-16.56 11.12,-16.18 10.58,-14.51 10.05,-12.84 9.14,-11.40 8.23,-9.96 7.34,-9.02 6.46,-8.08 5.24,-6.81 4.02,-5.55 2.46,-4.39 0.89,-3.24 -0.17,-2.66 -1.23,-2.07 -2.17,-1.45 -3.10,-0.83 -4.03,-0.03 -4.96,0.76 -6.69,0.66 -8.42,0.56 -9.43,-0.04 -10.44,-0.64 -10.83,-1.67 -11.23,-2.69 -11.33,-3.93 -11.44,-5.17 -11.47,-6.71 -11.50,-8.25 -11.49,-9.66 -11.49,-11.07 -11.49,-12.15 -11.50,-13.22 -11.52,-14.74 -11.53,-16.25 -11.48,-16.68 -11.43,-17.10 -11.28,-17.50 -11.13,-17.90 -10.88,-18.25 -10.64,-18.60 -10.32,-18.88 -10.00,-19.16 -9.63,-19.36 -9.25,-19.56 -8.83,-19.66 -8.42,-19.76 -7.99,-19.76 -7.57,-19.76 -7.15,-19.66 -6.74,-19.56 -6.36,-19.36 -5.99,-19.16 -5.67,-18.88 -5.35,-18.60 -5.11,-18.25 -4.86,-17.90 -4.71,-17.50 -4.56,-17.10 -4.51,-16.68 -4.46,-16.25 -4.47,-14.74 -4.49,-13.23 -4.48,-12.02 -4.48,-10.82 -4.47,-9.28 -4.45,-7.74 -3.92,-6.57 -3.39,-5.39 -1.97,-4.51 -0.55,-3.64 -1.95,-2.67 -3.35,-1.70 -3.50,-3.03 -3.64,-4.35 -4.52,-5.69 -5.40,-7.03 -5.89,-8.02 -6.38,-9.01 -6.89,-10.14 -7.39,-11.27 -7.88,-12.28 -8.38,-13.29 -8.52,-13.77 -8.66,-14.25 -8.86,-14.62 -9.06,-15.00 -9.16,-15.41 -9.26,-15.82 -9.26,-16.24 -9.26,-16.67 -9.16,-17.08 -9.06,-17.49 -8.87,-17.87 -8.67,-18.24 -8.39,-18.56 -8.11,-18.88 -7.76,-19.12 -7.41,-19.36 -7.01,-19.51 -6.62,-19.66 -6.20,-19.71 -5.78,-19.76 -5.35,-19.71 -4.93,-19.66 -4.54,-19.51 -4.14,-19.36 -3.79,-19.12 -3.44,-18.88 -3.16,-18.57 -2.88,-18.25 -2.64,-16.43 -2.41,-14.61 -2.45,-13.38 -2.48,-12.15 -2.51,-10.57 -2.53,-8.99 -2.52,-7.88 -2.51,-6.78 -2.50,-5.26 -2.48,-3.74 -3.83,-3.78 -5.18,-3.82 -2.40,-3.42 0.37,-3.02 0.84,-2.88 1.31,-2.74 1.72,-2.46 2.12,-2.18 2.42,-1.78 2.71,-1.38 2.86,-0.91 3.01,-0.45 3.00,0.04 3.00,0.53 2.83,1.00 2.67,1.46 2.36,1.85 2.06,2.24 1.65,2.51 1.24,2.78 0.76,2.91 0.28,3.03 -0.20,3.00 -0.69,2.96 -1.15,2.77 -1.60,2.58 -1.98,2.26 -2.35,1.94 -2.60,1.51 -2.84,1.08 -2.94,0.60 -3.04,0.12 -2.98,-0.36 -2.92,-0.85 -2.71,-1.30 -2.49,-1.74 -2.15,-2.10 -1.80,-2.45 -1.37,-2.67 -0.93,-2.90 -0.44,-2.97 0.04,-3.04 0.52,-2.96 1.01,-2.87 1.44,-2.63 1.88,-2.40 2.21,-2.03 2.54,-1.67 2.74,-1.22 2.94,-0.77 2.99,-0.28 3.04,0.20 2.92,0.68 2.81,1.16 2.55,1.58 2.29,2.00 1.91,2.32 1.53,2.63 1.07,2.81 0.61,2.98 0.11,3.00 -0.37,3.02 -0.37,3.02 -0.37,3.02 -3.59,2.68 -6.81,2.34 -8.16,-0.69 -9.51,-3.74 -9.49,-5.26 -9.48,-6.78 -9.46,-7.90 -9.45,-9.01 -9.46,-10.63 -9.47,-12.25 -9.07,-13.25 -8.66,-14.25 -8.86,-14.62 -9.06,-15.00 -9.16,-15.41 -9.26,-15.82 -9.26,-16.24 -9.26,-16.67 -9.16,-17.08 -9.06,-17.49 -8.87,-17.87 -8.67,-18.24 -8.39,-18.56 -8.11,-18.88 -7.76,-19.12 -7.41,-19.36 -7.01,-19.51 -6.62,-19.66 -6.20,-19.71 -5.78,-19.76 -5.35,-19.71 -4.93,-19.66 -4.54,-19.51 -4.14,-19.36 -3.79,-19.12 -3.44,-18.88 -3.16,-18.57 -2.88,-18.25 -2.72,-17.72 -2.56,-17.18 -2.03,-16.10 -1.49,-15.02 -0.92,-14.04 -0.36,-13.06 0.20,-11.85 0.76,-10.64 1.66,-9.35 2.56,-8.06 3.08,-6.10 3.60,-4.15 3.53,-2.91 3.46,-1.68 2.76,-0.08 2.06,1.51 -0.41,2.32 -2.90,3.12 -3.66,2.36 -4.43,1.60 -5.73,0.80 -7.03,0.00 -7.86,-0.82 -8.68,-1.64 -9.60,-2.82 -10.51,-4.00 -11.02,-5.87 -11.54,-7.74 -11.52,-9.28 -11.51,-10.82 -11.51,-12.02 -11.50,-13.23 -11.52,-14.74 -11.53,-16.25 -11.48,-16.68 -11.43,-17.10 -11.28,-17.50 -11.13,-17.90 -10.88,-18.25 -10.64,-18.60 -10.32,-18.88 -10.00,-19.16 -9.63,-19.36 -9.25,-19.56 -8.84,-19.66 -8.42,-19.76 -8.00,-19.76 -7.57,-19.76 -7.16,-19.66 -6.74,-19.56 -6.36,-19.36 -5.99,-19.16 -5.67,-18.88 -5.35,-18.60 -5.11,-18.25 -4.86,-17.90 -4.71,-17.50 -4.56,-17.10 -4.51,-16.68 -4.46,-16.25 -4.46,-15.75 -4.47,-15.25 -4.48,-13.71 -4.50,-12.18 -4.50,-11.01 -4.51,-9.83 -4.50,-8.56 -4.50,-7.28 -4.73,-5.94 -4.96,-4.60 -6.51,-4.69 -8.07,-4.77 -6.65,-6.00 -5.22,-7.24 -3.70,-7.85 -2.19,-8.46 -0.78,-9.80 0.62,-11.14 1.87,-12.49 3.12,-13.83 3.99,-15.09 4.86,-16.34 4.91,-16.71 4.97,-17.09 5.11,-17.44 5.25,-17.79 5.47,-18.09 5.70,-18.40 5.98,-18.64 6.27,-18.88 6.61,-19.05 6.95,-19.22 7.32,-19.30 7.69,-19.38 8.07,-19.37 8.44,-19.36 8.81,-19.26 9.17,-19.16 9.50,-18.98 9.83,-18.79 10.11,-18.54 10.38,-18.28 10.59,-17.96 10.80,-17.65 10.92,-17.29 11.05,-16.93 11.08,-16.56 11.12,-16.18 11.06,-15.14 10.99,-14.10 10.75,-12.71 10.50,-11.33 9.58,-9.81 8.66,-8.30 7.62,-6.67 6.58,-5.04 5.91,-3.56 5.23,-2.08 4.41,-0.97 3.59,0.13 2.72,0.99 1.84,1.84 1.60,2.04 1.35,2.23 1.06,2.36 0.77,2.49 0.46,2.55 0.15,2.61 -0.15,2.59 -0.47,2.57 -0.77,2.47 -1.07,2.38 -1.34,2.22 -1.61,2.05 -1.83,1.83 -2.05,1.61 -2.22,1.34 -2.38,1.07 -2.47,0.77 -2.57,0.47 -2.59,0.15 -2.61,-0.15 -2.55,-0.46 -2.49,-0.77 -2.36,-1.06 -2.23,-1.35 -2.04,-1.60 -1.84,-1.84 -1.84,-1.84 L -1.84,-1.84 Z"></path></g></svg>